<svg width="512" height="512" viewBox="0 0 512 512" fill="none" xmlns="http://www.w3.org/2000/svg">
<rect width="512" height="512" rx="102" fill="#4BA586"/>
<path d="M172.091 303V209.909H209.364C216.212 209.909 221.924 210.924 226.5 212.955C231.076 214.985 234.515 217.803 236.818 221.409C239.121 224.985 240.273 229.106 240.273 233.773C240.273 237.409 239.545 240.606 238.091 243.364C236.636 246.091 234.636 248.333 232.091 250.091C229.576 251.818 226.697 253.045 223.455 253.773V254.682C227 254.833 230.318 255.833 233.409 257.682C236.53 259.53 239.061 262.121 241 265.455C242.939 268.758 243.909 272.697 243.909 277.273C243.909 282.212 242.682 286.621 240.227 290.5C237.803 294.348 234.212 297.394 229.455 299.636C224.697 301.879 218.833 303 211.864 303H172.091ZM191.773 286.909H207.818C213.303 286.909 217.303 285.864 219.818 283.773C222.333 281.652 223.591 278.833 223.591 275.318C223.591 272.742 222.97 270.47 221.727 268.5C220.485 266.53 218.712 264.985 216.409 263.864C214.136 262.742 211.424 262.182 208.273 262.182H191.773V286.909ZM191.773 248.864H206.364C209.061 248.864 211.455 248.394 213.545 247.455C215.667 246.485 217.333 245.121 218.545 243.364C219.788 241.606 220.409 239.5 220.409 237.045C220.409 233.682 219.212 230.97 216.818 228.909C214.455 226.848 211.091 225.818 206.727 225.818H191.773V248.864ZM256.716 303V209.909H276.398V248.318H316.352V209.909H335.989V303H316.352V264.545H276.398V303H256.716Z" fill="white"/>
</svg>
