<svg width="43" height="38" viewBox="0 0 43 38" fill="none" xmlns="http://www.w3.org/2000/svg">
<path fill-rule="evenodd" clip-rule="evenodd" d="M32.9412 15.3807L16.6262 24.8285C16.6262 24.8285 15.9014 18.9053 19.8648 15.9274C23.1468 13.4613 30.8679 9.33301 30.8679 9.33301" fill="#006F6A"/>
<path fill-rule="evenodd" clip-rule="evenodd" d="M3.83227 25.1982C4.2293 26.5383 4.78814 27.8526 5.51748 29.115C5.83553 29.6658 6.17794 30.1934 6.5433 30.6972L0.0494763 34.4577C0.0494763 34.4577 -0.66108 28.5582 3.30335 25.5834C3.46898 25.4592 3.6461 25.3301 3.83227 25.1982Z" fill="#EDBA37"/>
<path fill-rule="evenodd" clip-rule="evenodd" d="M41.8067 14.6438C43.0285 21.9457 39.0021 30.9045 32.2163 34.8227C23.4836 39.8644 12.3006 36.8677 7.25847 28.135C2.21673 19.4023 5.21345 8.21961 13.9461 3.17752C22.6788 -1.86423 33.8622 1.13214 38.904 9.86446C38.9836 10.0026 39.682 11.2069 39.7119 11.4864L32.6144 15.5562C32.4891 15.2879 32.0378 14.1762 31.8878 13.9155C29.0818 9.05543 22.6221 6.84199 17.7616 9.64803C12.9015 12.4541 10.8032 19.3936 13.6093 24.2541C16.4153 29.1138 23.62 31.4393 28.4802 28.6333C30.0592 27.7216 32.9634 25.5451 34.2505 22.2421C36.0231 17.6931 37.7289 16.289 41.8067 14.6438Z" fill="#006F6A"/>
</svg>
